<!-- Generated by IcoMoon.io -->
<svg version="1.1" xmlns="http://www.w3.org/2000/svg" width="32" height="32" viewBox="0 0 32 32">
<title>scissors</title>
<path fill="#fff" d="M20.734 12.454l-0.699-0.699 11.3-11.3c-5.859 0.508-12.257 7.119-16.081 10.943l-1.15 4.195-3.845 0.995c-0.239-0.815-0.682-1.587-1.321-2.225-0.508-0.508-1.102-0.894-1.733-1.15-0.949-0.384-1.979-0.479-2.969-0.288-0.989 0.19-1.941 0.675-2.703 1.437-0.509 0.509-0.895 1.102-1.151 1.734-0.383 0.947-0.479 1.979-0.287 2.968 0.19 0.988 0.674 1.94 1.438 2.704 0.508 0.509 1.101 0.894 1.732 1.15 0.948 0.384 1.979 0.48 2.969 0.288s1.94-0.674 2.704-1.438c0.508-0.509 0.895-1.102 1.15-1.733 0.152-0.375 0.257-0.763 0.318-1.155l2.943-0.683-0.683 2.945c-0.061 0.010-0.123 0.017-0.185 0.029-0.988 0.19-1.941 0.674-2.703 1.437-0.509 0.509-0.895 1.102-1.151 1.734-0.383 0.947-0.48 1.979-0.287 2.968 0.19 0.988 0.674 1.94 1.438 2.704 0.508 0.509 1.101 0.894 1.732 1.15 0.948 0.384 1.979 0.48 2.968 0.288 0.99-0.19 1.941-0.674 2.705-1.437 0.508-0.509 0.895-1.101 1.15-1.732 0.383-0.948 0.479-1.98 0.288-2.97-0.191-0.988-0.674-1.94-1.438-2.704-0.508-0.508-1.102-0.894-1.733-1.15-0.152-0.061-0.306-0.113-0.463-0.16l1.294-3.9 3.866-1.107c3.809-3.809 11.228-9.334 11.851-15.103l-11.266 11.266zM7.629 18.532c-0.090 0.461-0.309 0.897-0.669 1.257-0.241 0.24-0.514 0.416-0.806 0.537-0.438 0.177-0.923 0.223-1.385 0.133-0.461-0.090-0.895-0.31-1.257-0.669-0.24-0.241-0.417-0.514-0.536-0.805-0.178-0.439-0.223-0.924-0.133-1.386 0.090-0.461 0.31-0.895 0.67-1.257 0.241-0.241 0.513-0.416 0.805-0.535 0.438-0.178 0.925-0.223 1.385-0.134 0.462 0.090 0.896 0.31 1.257 0.669 0.24 0.242 0.416 0.514 0.535 0.806 0.179 0.438 0.224 0.923 0.134 1.385zM15.206 24.586c0.24 0.242 0.416 0.514 0.535 0.806 0.179 0.438 0.224 0.923 0.134 1.385-0.090 0.461-0.31 0.896-0.669 1.256-0.241 0.24-0.514 0.417-0.806 0.537-0.438 0.177-0.923 0.223-1.385 0.134-0.462-0.091-0.896-0.31-1.258-0.67-0.24-0.241-0.416-0.514-0.535-0.805-0.178-0.439-0.224-0.924-0.134-1.386 0.090-0.461 0.309-0.896 0.669-1.257 0.241-0.241 0.512-0.416 0.805-0.535 0.439-0.178 0.924-0.225 1.386-0.134 0.462 0.090 0.896 0.309 1.257 0.669zM18.561 14.361c-0.366 0.367-0.959 0.365-1.325 0s-0.366-0.958 0-1.325c0.366-0.365 0.959-0.366 1.324 0s0.366 0.959 0.001 1.325z"></path>
</svg>
